# xmcd
#
# Track frame offsets: 
#        150
#        11615
#        31855
#        65225
#        84137
#        101117
#        112700
#        127885
#        147110
#        167660
#        182247
#        201142
#
# Disc length: 2874 seconds
#
# Revision: 1
# Processed by: cddbd v1.5.2PL0 Copyright (c) Steve Scherf et al.
# Submitted via: ExactAudioCopy v0.99pb4
#
DISCID=960b380c
DTITLE=Skeeter Brandon and HWY 61 - Rockin' With The Blues
DYEAR=1991
DGENRE=Blues
TTITLE0=Aw Shucks, Baby
TTITLE1=Sparks
TTITLE2=Soap Opera Blues
TTITLE3=Bad Thing
TTITLE4=The Last Goodbye
TTITLE5=Strollie Bun
TTITLE6=You're Jinglin' Baby
TTITLE7=Please, Please
TTITLE8=Just Another Day
TTITLE9=That's What Lovin' You Has Done To Me
TTITLE10=Rockin' With The Blues
TTITLE11=Bug Out
EXTD=
EXTT0=
EXTT1=
EXTT2=
EXTT3=
EXTT4=
EXTT5=
EXTT6=
EXTT7=
EXTT8=
EXTT9=
EXTT10=
EXTT11=
PLAYORDER=
